<svg width="142" height="114" viewBox="0 0 142 114" fill="none" xmlns="http://www.w3.org/2000/svg">
    <g filter="url(#filter0_di_49_5953)">
        <g clip-path="url(#clip0_49_5953)">
            <g filter="url(#filter1_di_49_5953)">
                <rect x="4.74316" y="10.3938" width="66.6244" height="66.6244" rx="19.8704"
                    transform="rotate(-5.94609 4.74316 10.3938)" fill="#E0E3C8" />
                <rect x="4.74316" y="10.3938" width="66.6244" height="66.6244" rx="19.8704"
                    transform="rotate(-5.94609 4.74316 10.3938)" fill="url(#paint0_linear_49_5953)"
                    fill-opacity="0.6" />
            </g>
            <path
                d="M35.3421 13.0825C26.8779 13.964 22.6458 14.4048 19.5844 16.3888C16.8916 18.1339 14.8204 20.6868 13.6676 23.6814"
                stroke="white" stroke-opacity="0.6" stroke-width="3.50655" stroke-linecap="round"
                stroke-linejoin="round" />
            <g filter="url(#filter2_d_49_5953)">
                <path
                    d="M57.665 43.1476L57.574 44.0925L58.3996 44.5611C58.8824 44.8351 59.1352 45.3956 58.9974 45.9459C58.8597 46.4963 58.3726 46.8715 57.8177 46.8858L56.8698 46.9101L56.5043 47.785C53.5246 54.9177 45.7172 59.0108 38.0009 57.0792C30.2831 55.1472 25.3176 47.8634 26.0584 40.1651L26.1493 39.2202L25.3238 38.7516C24.841 38.4776 24.5882 37.9171 24.7259 37.3668C24.8637 36.8165 25.3508 36.4412 25.9057 36.4269L26.8535 36.4026L27.219 35.5277C29.8073 29.3321 36.0381 25.4298 42.6877 25.7774L42.6782 25.8151C42.2685 27.4517 43.2631 29.1105 44.8997 29.5202C46.4971 29.9201 48.1157 28.9822 48.5732 27.4153C48.6051 27.3724 48.6358 27.3287 48.6656 27.2841C54.6715 30.1218 58.3067 36.4782 57.665 43.1476ZM50.3401 21.3512L50.9679 18.8433C51.3935 17.143 50.3601 15.4195 48.6598 14.9938C46.9594 14.5681 45.2359 15.6015 44.8102 17.3019L44.5127 18.4906C44.5061 18.5144 44.4998 18.5384 44.4937 18.5625L44.1902 19.7752C35.4318 18.8644 26.7872 23.3755 22.5513 31.1464C20.7269 32.0942 19.3218 33.7959 18.7993 35.8832C18.2768 37.9705 18.7145 40.1335 19.8772 41.8291C19.961 51.6956 26.787 60.5701 36.5173 63.0059C46.2476 65.4416 56.4497 60.8298 61.172 52.1663C62.9964 51.2185 64.4015 49.5168 64.924 47.4295C65.4466 45.3422 65.0089 43.1792 63.8462 41.4836C63.7717 32.7146 58.3715 24.7292 50.3401 21.3512Z"
                    fill="black" stroke="white" stroke-width="2.92804" stroke-miterlimit="10"
                    stroke-linecap="round" />
                <path d="M46.0236 25.5232L47.8887 18.0725" stroke="black" stroke-width="3.41961"
                    stroke-miterlimit="10" stroke-linecap="round" />
                <path
                    d="M37.2591 60.0425C28.5405 57.86 22.5225 49.6712 22.9496 40.7592C21.86 39.7075 21.3782 38.1275 21.7549 36.623C22.1315 35.1185 23.3009 33.9517 24.7574 33.5374C28.5775 25.4829 37.7456 21.0876 46.4642 23.2701C55.1828 25.4526 61.1989 33.649 60.7737 42.5533C61.8633 43.605 62.345 45.185 61.9684 46.6896C61.5918 48.1941 60.4224 49.3608 58.9659 49.7751C55.1458 57.8296 45.9777 62.225 37.2591 60.0425Z"
                    fill="#FCDA00" />
                <path
                    d="M46.0776 24.8132C54.5184 26.9262 59.9308 34.8812 59.1219 43.2878C60.1557 43.8745 60.7205 45.09 60.4173 46.3013C60.114 47.5127 59.0432 48.3187 57.8549 48.3492C54.602 56.1358 46.0782 60.6104 37.645 58.4993C29.2119 56.3883 23.7918 48.4313 24.6008 40.0248C23.567 39.438 23.0022 38.2225 23.3054 37.0112C23.6086 35.7999 24.6795 34.9938 25.8678 34.9633C29.1206 27.1768 37.6445 22.7022 46.0776 24.8132ZM46.8502 21.727C37.6224 19.417 27.9218 23.9086 23.6174 32.2601C21.964 32.9694 20.673 34.4255 20.2192 36.2386C19.7653 38.0518 20.218 39.9443 21.3422 41.349C21.2043 50.7434 27.6447 59.2756 36.8725 61.5856C46.1003 63.8956 55.8009 59.4039 60.1052 51.0525C61.7586 50.3431 63.0496 48.8871 63.5035 47.0739C63.9574 45.2607 63.5047 43.3682 62.3805 41.9635C62.5184 32.5691 56.078 24.0369 46.8502 21.727Z"
                    fill="black" />
                <path
                    d="M38.2152 56.2232C40.3416 56.7555 42.4968 55.4633 43.0291 53.337C43.5614 51.2106 42.2691 49.0554 40.1428 48.5231C38.0165 47.9908 35.8612 49.2831 35.3289 51.4094C34.7967 53.5357 36.0889 55.691 38.2152 56.2232Z"
                    fill="black" />
                <path d="M39.6714 50.4055L37.485 59.1396" stroke="black" stroke-width="2.38609"
                    stroke-miterlimit="10" />
                <path d="M22.8145 40.5122L59.2011 49.6208" stroke="black" stroke-width="2.38609"
                    stroke-miterlimit="10" />
                <path d="M30.9016 34.6284C33.6614 30.2728 38.5053 27.8725 44.7185 28.861"
                    stroke="white" stroke-width="4.68486" stroke-linecap="round" />
            </g>
        </g>
    </g>
    <path
        d="M134.814 57.2132L140.424 95.2031C140.424 95.2031 88.6843 134.653 37.1443 91.1131C37.1443 91.1131 18.1443 86.2632 25.7343 72.4132L31.5943 74.5031C31.5943 74.5031 31.5943 65.0331 53.6443 69.7431C61.0743 71.3331 62.4843 67.9531 63.1243 59.5631C63.7643 51.1731 79.2943 48.5731 78.8343 57.7531C78.6043 62.3131 79.5343 62.5831 79.5343 62.5831C79.5343 62.5831 111.604 76.9431 134.814 57.2031V57.2132Z"
        fill="#FFE664" />
    <path
        d="M135.914 58.2332C127.614 66.1932 115.664 69.1232 104.444 69.2032C100.784 69.1532 96.9041 68.7732 93.2741 68.1932C91.1441 67.8832 88.1041 67.0732 85.9841 66.6432L78.8641 64.4732C76.3741 63.6532 77.4741 59.9432 80.0241 60.6432H80.0441L80.1941 60.6932L86.9841 62.8932C89.0241 63.3432 91.8941 64.1632 93.9141 64.4932C95.9641 64.7932 98.8941 65.3532 100.944 65.4132C109.674 66.1732 118.764 64.9132 126.644 61.0132C129.144 59.7032 131.804 58.0632 133.784 56.1132C135.174 54.7832 137.244 56.8132 135.904 58.2332H135.914Z"
        fill="#33332D" />
    <path
        d="M78.5943 65.3931C76.6243 63.2031 76.6743 60.6131 76.7843 58.0231C76.8743 57.1131 76.7743 56.1531 76.1743 55.4231C74.5943 53.3331 71.0443 53.1731 68.8743 54.6531C66.4543 56.1531 65.0643 59.2931 64.5843 62.6131C64.2843 64.7631 64.3943 66.7331 63.1643 68.7531C60.5843 73.1131 54.9043 72.0731 50.8043 71.2431C47.3043 70.6731 43.6743 70.1531 40.1843 70.4031C32.2843 70.6331 30.3343 78.5931 37.1943 82.4431C38.6343 83.3431 40.3043 83.9331 42.0143 84.4331C42.5543 84.5831 42.8743 85.1431 42.7143 85.6831C42.5743 86.1631 42.0943 86.4631 41.6143 86.3931C39.7043 86.1131 37.7843 85.6131 35.9643 84.7331C29.1943 81.7031 27.2843 73.3031 33.7743 68.7331C39.2643 65.5131 45.5343 66.7831 51.4043 67.4331C53.5643 67.7031 56.5243 68.5131 58.5443 67.6531C60.5943 66.7031 60.0443 63.8831 60.4443 61.9931C61.1243 55.5231 66.0043 48.6131 73.2943 49.5531C77.5243 49.9231 81.4943 53.7331 80.8043 58.2931C80.5443 59.6031 81.5643 67.4831 78.5843 65.3931H78.5943Z"
        fill="#33332D" />
    <path
        d="M27.1441 73.5833C23.6241 79.0833 26.4841 84.1833 31.9841 86.8833C34.0441 88.1233 36.6641 88.6133 38.4741 89.6233C52.3941 101.153 70.1241 108.593 88.2241 109.673C106.554 110.833 124.654 104.503 139.554 93.9733C140.234 93.4933 141.174 93.6633 141.644 94.3433C142.114 95.0233 141.954 95.9432 141.284 96.4232C133.604 101.873 125.174 106.393 116.144 109.333C98.0741 115.403 77.9341 114.183 60.3541 107.003C51.5041 103.403 43.1741 98.7333 35.8141 92.5933L36.5641 93.0133C27.4541 90.4633 18.0141 83.5533 22.9141 72.9833C23.5841 71.4833 24.7341 69.5233 26.6841 70.7133C27.6241 71.3533 27.8341 72.6633 27.1541 73.5733L27.1441 73.5833Z"
        fill="#33332D" />
    <defs>
        <filter id="filter0_di_49_5953" x="-4.50328" y="-4.67539" width="91.5041" height="96.1795"
            filterUnits="userSpaceOnUse" color-interpolation-filters="sRGB">
            <feFlood flood-opacity="0" result="BackgroundImageFix" />
            <feColorMatrix in="SourceAlpha" type="matrix"
                values="0 0 0 0 0 0 0 0 0 0 0 0 0 0 0 0 0 0 127 0" result="hardAlpha" />
            <feOffset dy="4.67539" />
            <feGaussianBlur stdDeviation="2.3377" />
            <feColorMatrix type="matrix" values="0 0 0 0 0 0 0 0 0 0 0 0 0 0 0 0 0 0 0.02 0" />
            <feBlend mode="normal" in2="BackgroundImageFix" result="effect1_dropShadow_49_5953" />
            <feBlend mode="normal" in="SourceGraphic" in2="effect1_dropShadow_49_5953"
                result="shape" />
            <feColorMatrix in="SourceAlpha" type="matrix"
                values="0 0 0 0 0 0 0 0 0 0 0 0 0 0 0 0 0 0 127 0" result="hardAlpha" />
            <feOffset dy="-4.67539" />
            <feGaussianBlur stdDeviation="4.67539" />
            <feComposite in2="hardAlpha" operator="arithmetic" k2="-1" k3="1" />
            <feColorMatrix type="matrix" values="0 0 0 0 0 0 0 0 0 0 0 0 0 0 0 0 0 0 0.02 0" />
            <feBlend mode="normal" in2="shape" result="effect2_innerShadow_49_5953" />
        </filter>
        <filter id="filter1_di_49_5953" x="2.26723" y="1.01626" width="78.1196" height="82.7947"
            filterUnits="userSpaceOnUse" color-interpolation-filters="sRGB">
            <feFlood flood-opacity="0" result="BackgroundImageFix" />
            <feColorMatrix in="SourceAlpha" type="matrix"
                values="0 0 0 0 0 0 0 0 0 0 0 0 0 0 0 0 0 0 127 0" result="hardAlpha" />
            <feOffset dy="4.67539" />
            <feGaussianBlur stdDeviation="2.3377" />
            <feColorMatrix type="matrix" values="0 0 0 0 0 0 0 0 0 0 0 0 0 0 0 0 0 0 0.02 0" />
            <feBlend mode="normal" in2="BackgroundImageFix" result="effect1_dropShadow_49_5953" />
            <feBlend mode="normal" in="SourceGraphic" in2="effect1_dropShadow_49_5953"
                result="shape" />
            <feColorMatrix in="SourceAlpha" type="matrix"
                values="0 0 0 0 0 0 0 0 0 0 0 0 0 0 0 0 0 0 127 0" result="hardAlpha" />
            <feOffset dy="-4.67539" />
            <feGaussianBlur stdDeviation="5.84424" />
            <feComposite in2="hardAlpha" operator="arithmetic" k2="-1" k3="1" />
            <feColorMatrix type="matrix" values="0 0 0 0 0 0 0 0 0 0 0 0 0 0 0 0 0 0 0.21 0" />
            <feBlend mode="normal" in2="shape" result="effect2_innerShadow_49_5953" />
        </filter>
        <filter id="filter2_d_49_5953" x="12.4321" y="13.4336" width="58.8592" height="61.054"
            filterUnits="userSpaceOnUse" color-interpolation-filters="sRGB">
            <feFlood flood-opacity="0" result="BackgroundImageFix" />
            <feColorMatrix in="SourceAlpha" type="matrix"
                values="0 0 0 0 0 0 0 0 0 0 0 0 0 0 0 0 0 0 127 0" result="hardAlpha" />
            <feOffset dy="4.68486" />
            <feGaussianBlur stdDeviation="2.34243" />
            <feColorMatrix type="matrix" values="0 0 0 0 0 0 0 0 0 0 0 0 0 0 0 0 0 0 0.1 0" />
            <feBlend mode="normal" in2="BackgroundImageFix" result="effect1_dropShadow_49_5953" />
            <feBlend mode="normal" in="SourceGraphic" in2="effect1_dropShadow_49_5953"
                result="shape" />
        </filter>
        <linearGradient id="paint0_linear_49_5953" x1="38.0554" y1="10.3938" x2="38.0554"
            y2="77.0182" gradientUnits="userSpaceOnUse">
            <stop stop-color="white" />
            <stop offset="1" stop-color="white" stop-opacity="0" />
        </linearGradient>
        <clipPath id="clip0_49_5953">
            <rect x="0.172119" y="7.74951" width="74.8063" height="74.8063" rx="14.9613"
                transform="rotate(-5.94609 0.172119 7.74951)" fill="white" />
        </clipPath>
    </defs>
</svg>
