<svg width="16" height="15" viewBox="0 0 16 15" fill="none" xmlns="http://www.w3.org/2000/svg">
    <path
        d="M8 14.626C4.1377 14.626 0.938477 11.4336 0.938477 7.56445C0.938477 3.70215 4.13086 0.50293 7.99316 0.50293C11.8623 0.50293 15.0615 3.70215 15.0615 7.56445C15.0615 11.4336 11.8623 14.626 8 14.626ZM8 13.2383C11.1445 13.2383 13.6738 10.709 13.6738 7.56445C13.6738 4.41992 11.1377 1.89746 7.99316 1.89746C4.84863 1.89746 2.33301 4.41992 2.33301 7.56445C2.33301 10.709 4.85547 13.2383 8 13.2383ZM7.95898 5.32227C7.44629 5.32227 7.03613 4.90527 7.03613 4.39941C7.03613 3.87988 7.44629 3.46973 7.95898 3.46973C8.47168 3.46973 8.88184 3.87988 8.88184 4.39941C8.88184 4.90527 8.47168 5.32227 7.95898 5.32227ZM6.80371 11.3242C6.50293 11.3242 6.26367 11.1055 6.26367 10.7979C6.26367 10.5107 6.50293 10.2852 6.80371 10.2852H7.61719V7.42773H6.92676C6.61914 7.42773 6.38672 7.20898 6.38672 6.90137C6.38672 6.61426 6.61914 6.38184 6.92676 6.38184H8.21191C8.59473 6.38184 8.79297 6.64844 8.79297 7.05176V10.2852H9.55859C9.85938 10.2852 10.0986 10.5107 10.0986 10.7979C10.0986 11.1055 9.85938 11.3242 9.55859 11.3242H6.80371Z"
        fill="#7F8075" />
</svg>
