<svg width="14" height="16" viewBox="0 0 14 16" fill="none" xmlns="http://www.w3.org/2000/svg">
    <path opacity="0.3"
        d="M3.8623 15.6465C2.80273 15.6465 2.13281 15.0176 2.08496 13.9648L1.62012 4.10742H0.861328C0.533203 4.10742 0.259766 3.84766 0.259766 3.50586C0.259766 3.1709 0.533203 2.91113 0.861328 2.91113H3.89648V1.88574C3.89648 0.839844 4.56641 0.217773 5.69434 0.217773H8.29199C9.42676 0.217773 10.0898 0.839844 10.0898 1.88574V2.91113H13.1318C13.4736 2.91113 13.7402 3.1709 13.7402 3.50586C13.7402 3.84766 13.4736 4.10742 13.1318 4.10742H12.3799L11.915 13.958C11.8672 15.0107 11.1904 15.6465 10.1445 15.6465H3.8623ZM5.1543 1.94727V2.91113H8.83203V1.94727C8.83203 1.5918 8.58594 1.36621 8.20312 1.36621H5.7832C5.40039 1.36621 5.1543 1.5918 5.1543 1.94727ZM3.99219 14.4365H9.99414C10.3838 14.4365 10.6572 14.1631 10.6709 13.7598L11.1152 4.10742H2.85742L3.32227 13.7598C3.34277 14.1631 3.61621 14.4365 3.99219 14.4365ZM4.9834 13.3359C4.70996 13.3359 4.51855 13.1582 4.51172 12.8848L4.30664 5.7207C4.2998 5.4541 4.48438 5.26953 4.77148 5.26953C5.04492 5.26953 5.23633 5.44727 5.24316 5.7207L5.44824 12.8848C5.45508 13.1514 5.27051 13.3359 4.9834 13.3359ZM7 13.3359C6.71289 13.3359 6.52148 13.1514 6.52148 12.8848V5.7207C6.52148 5.4541 6.71289 5.26953 7 5.26953C7.28711 5.26953 7.47852 5.4541 7.47852 5.7207V12.8848C7.47852 13.1514 7.28711 13.3359 7 13.3359ZM9.0166 13.3359C8.72949 13.3359 8.53809 13.1514 8.54492 12.8848L8.75684 5.7207C8.76367 5.44727 8.95508 5.26953 9.22852 5.26953C9.50879 5.26953 9.7002 5.4541 9.69336 5.7207L9.48145 12.8848C9.47461 13.1582 9.29004 13.3359 9.0166 13.3359Z"
        fill="#3D4200" />
</svg>
