<svg width="12" height="12" viewBox="0 0 12 12" fill="none" xmlns="http://www.w3.org/2000/svg">
    <path
        d="M0.751953 11.3555C0.458008 11.0684 0.464844 10.5625 0.751953 10.2822L4.95605 6.07129L0.751953 1.86719C0.464844 1.58691 0.458008 1.08789 0.751953 0.787109C1.0459 0.493164 1.54492 0.5 1.83203 0.787109L6.03613 4.99121L10.2402 0.787109C10.5342 0.5 11.0195 0.5 11.3203 0.793945C11.6211 1.08105 11.6143 1.58008 11.3271 1.86719L7.12305 6.07129L11.3271 10.2822C11.6143 10.5693 11.6143 11.0615 11.3203 11.3555C11.0264 11.6562 10.5342 11.6494 10.2402 11.3623L6.03613 7.1582L1.83203 11.3623C1.54492 11.6494 1.05273 11.6494 0.751953 11.3555Z"
        fill="#3D4200" />
</svg>
