<svg width="14" height="13" viewBox="0 0 14 13" fill="none" xmlns="http://www.w3.org/2000/svg">
    <path
        d="M5.57812 12.1621C5.23633 12.1621 4.9834 12.0186 4.74414 11.7246L1.20312 7.29492C1.03223 7.08301 0.957031 6.88477 0.957031 6.67969C0.957031 6.20801 1.30566 5.86621 1.78418 5.86621C2.08496 5.86621 2.29004 5.97559 2.48828 6.24219L5.55078 10.1729L11.4912 0.739258C11.6963 0.417969 11.8945 0.301758 12.2295 0.301758C12.708 0.301758 13.0361 0.629883 13.0361 1.10156C13.0361 1.28613 12.9814 1.47754 12.8379 1.69629L6.41211 11.7178C6.21387 12.0117 5.94043 12.1621 5.57812 12.1621Z"
        fill="#A9B52D" />
</svg>
