<svg width="19" height="14" viewBox="0 0 19 14" fill="none" xmlns="http://www.w3.org/2000/svg">
    <path opacity="0.3"
        d="M15.1025 7.44727C13.1748 7.44727 11.5889 5.86133 11.5889 3.92676C11.5889 2.00586 13.1748 0.413086 15.1025 0.413086C17.0371 0.413086 18.623 1.99902 18.623 3.92676C18.623 5.85449 17.0166 7.44727 15.1025 7.44727ZM2.4082 13.3672C0.931641 13.3672 0.166016 12.6084 0.166016 11.1455V2.8125C0.166016 1.37695 0.917969 0.631836 2.19629 0.631836H4.13086C4.8418 0.631836 5.19727 0.761719 5.67578 1.1582L6.07227 1.47266C6.44824 1.78027 6.73535 1.89648 7.22754 1.89648H11.083C10.8574 2.34766 10.748 2.76465 10.6934 3.23633H6.87207C6.16113 3.23633 5.79199 3.10645 5.32031 2.7168L4.92383 2.39551C4.54102 2.08105 4.26074 1.97168 3.77539 1.97168H2.46289C1.84766 1.97168 1.50586 2.2998 1.50586 2.92871V4.63086H10.6797C10.7412 5.05469 10.8779 5.45117 11.0693 5.81348H1.50586V11.0361C1.50586 11.6992 1.85449 12.0273 2.49023 12.0273H13.5098C14.1387 12.0273 14.4873 11.6992 14.4873 11.0361V8.36328C14.9248 8.44531 15.4648 8.43848 15.8271 8.36328V11.1455C15.8271 12.6084 15.0684 13.3672 13.7627 13.3672H2.4082ZM15.1025 6.16211C15.3896 6.16211 15.5742 5.9707 15.5742 5.69727V4.39844H16.8662C17.1465 4.39844 17.3311 4.21387 17.3311 3.93359C17.3311 3.64648 17.1465 3.46191 16.8662 3.46191H15.5742V2.16992C15.5742 1.88965 15.3896 1.70508 15.1025 1.70508C14.8223 1.70508 14.6377 1.89648 14.6377 2.16992V3.46191H13.3457C13.0654 3.46191 12.8809 3.64648 12.8809 3.93359C12.8809 4.21387 13.0654 4.39844 13.3457 4.39844H14.6377V5.69727C14.6377 5.9707 14.8223 6.16211 15.1025 6.16211Z"
        fill="#7F8075" />
</svg>
