<svg width="120" height="141" viewBox="0 0 120 141" fill="none" xmlns="http://www.w3.org/2000/svg">
    <path
        d="M85.351 26.4016C88.8582 4.39841 62.5287 -2.75678 57.0375 22.8944C46.5671 1.96642 21.1591 16.3536 34.2535 43.1696L34.4327 43.72C16.9735 35.6688 5.22308 57.416 24.5767 72.5584C26.1383 73.7872 27.2263 75.5152 27.5975 77.4608C32.2695 102.037 33.1271 138.325 33.1271 138.325H102.823C108.417 80.648 102.106 45.7168 101.876 44.4752C112.436 29.4224 97.7158 14.8944 85.351 26.3888V26.4016Z"
        fill="#FFEB6B" />
    <path
        d="M31.1943 138.376C30.1063 118.792 28.8135 98.952 25.3831 79.6624C25.1399 77.8448 24.6535 75.8608 23.0919 74.7088C16.6663 69.6912 11.4567 62.4208 12.0455 53.6784C12.3911 47.7904 16.3847 42.0176 22.1575 40.2128C27.7383 38.344 33.7671 40.0336 38.4647 43.016L37.0055 42.632C46.1063 42.4272 56.2183 47.6752 57.9719 57.2112C58.2791 58.7088 56.1415 59.3616 55.5399 57.992C53.2103 52.7056 48.3207 49.3264 42.7399 48.264C41.0119 47.9056 38.9383 47.6624 37.2487 47.7264C36.7239 47.752 36.2247 47.6112 35.8023 47.3552C30.7207 43.9888 23.0535 43.0032 19.1879 48.4816C14.6823 54.8816 18.3559 63.4576 23.7447 68.3984C25.7671 70.2928 28.2503 71.8416 29.3383 74.5296C29.9399 75.7456 30.1959 77.4096 30.4135 78.7408C33.6775 98.4912 34.7399 118.318 35.0471 138.274C35.0215 140.706 31.3735 140.898 31.2071 138.363L31.1943 138.376Z"
        fill="#33332D" />
    <path
        d="M100.903 138.146C103.463 107.221 104.18 75.6432 99.3544 44.9488C99.2264 44.2448 99.4056 43.5664 99.7768 43.016C102.99 38.5872 104.372 32.1488 100.801 27.7712C97.1912 23.2784 90.9704 24.4432 87.092 28.2832C86.0552 29.2432 84.4297 29.1792 83.4697 28.1296C82.9321 27.5408 82.7144 26.7472 82.8168 26.0048C83.3928 22.1904 83.0984 18.2736 81.4216 15.0992C78.0168 8.21279 69.236 7.08639 64.2952 13.0896C61.7736 15.9568 60.3656 19.7328 59.5336 23.496C59.0344 25.8 55.7449 26.1456 54.7593 24.0464C51.3289 16.6096 42.8808 12.0144 36.6344 18.7216C31.1432 25.096 33.0249 34.9136 36.5833 42.0944C37.9657 45.1792 33.4856 47.304 31.9624 44.296C17.6136 15.7264 46.2344 -2.89761 59.3416 21.7552L54.5544 22.3696C56.1928 13.2432 63.4248 2.70879 74.0616 4.12959C84.8776 5.43519 89.7416 17.2368 87.8984 26.8112L83.6232 24.5328C93.8376 14.5872 109.108 21.1536 107.982 35.6304C107.649 39.496 106.036 42.9904 103.988 45.96L104.41 44.0272C105.69 52.0016 106.318 59.8096 106.791 67.72C108.11 91.336 107.124 115.016 104.756 138.53C104.474 140.987 100.762 140.77 100.929 138.158L100.903 138.146Z"
        fill="#33332D" />
</svg>
