<svg width="120" height="140" viewBox="0 0 120 140" fill="none" xmlns="http://www.w3.org/2000/svg">
    <g clip-path="url(#clip0_98_2179)">
        <path
            d="M77.2544 128.611C77.2544 128.611 72.2221 106.075 78.2953 85.3931C79.8702 80.0168 84.9297 76.4054 90.5141 76.6498C94.3155 76.8127 97.2752 77.0028 99.556 75.7357C107.593 71.3188 105.656 58.4302 90.8309 53.416C89.5366 52.9725 88.5953 51.8139 88.5048 50.4563C85.699 9.38302 63.5151 -3.78612 61.8316 23.403C16.6311 24.9054 9.1459 81.7184 37.5116 136.06"
            fill="#FFEB6B" />
        <path
            d="M75.3809 129.037C72.5661 115.723 72.0773 101.947 74.9102 88.6333L75.58 85.9724C76.4218 81.8723 79.0013 78.1342 82.6669 76.0616C84.9659 74.722 87.654 74.0251 90.324 74.0884C92.7859 74.1246 96.2252 74.541 98.2164 73.5272C101.964 71.6084 102.561 67.083 100.325 63.4173C98.3251 59.9146 94.2431 57.3713 90.315 56.0318C87.835 55.3258 85.9162 53.0268 85.8528 50.3749C85.3098 42.8807 84.0608 35.3684 81.7075 28.3267C78.0509 16.2528 66.2575 0.784646 64.4473 23.5931C64.3568 24.9326 63.2526 25.9825 61.9221 26.0278C51.0609 26.245 40.3899 30.6166 33.6469 39.2603C19.8804 57.3713 21.7992 82.4244 27.0487 103.459C29.9269 114.41 34.0271 125.063 39.2042 135.182C39.693 136.124 39.3128 137.282 38.3715 137.771C37.4393 138.251 36.2988 137.889 35.801 136.956C30.3524 126.693 25.8269 115.868 22.7767 104.581C12.9564 70.6853 17.5633 22.688 61.732 20.7873L59.2068 23.2401C59.4422 16.7777 61.9945 5.51835 70.7921 6.58636C84.9297 9.80851 89.962 35.6762 90.9486 47.9764L91.1386 50.3568C91.1567 50.7551 91.7088 50.9632 92.0437 51.0628C100.923 53.7328 110.562 63.6617 105.403 73.4549C102.108 79.4466 95.9899 79.6638 90.1882 79.2022C85.9524 79.0393 81.8704 81.9628 80.6757 86.0357C78.6573 92.9778 77.716 100.237 77.5712 107.568C77.4898 114.438 77.9061 121.479 79.1099 128.186C79.6348 130.612 75.9602 131.535 75.3628 129.019L75.3809 129.037Z"
            fill="#33332D" />
        <path
            d="M68.3483 31.2592C79.0737 48.4651 61.2342 72.0247 41.9285 66.8023C39.3671 66.033 37.0139 64.7115 34.9864 63.0281C34.4434 62.5755 34.362 61.77 34.8145 61.227C35.2671 60.6839 36.0635 60.6115 36.6065 61.0459C40.2088 63.9603 44.9063 65.3089 49.4409 64.5758C58.4828 63.1729 66.3119 55.1628 67.7419 46.1843C68.4931 41.704 67.4613 37.088 65.0538 33.2504C63.7414 31.0691 66.9997 29.0779 68.3302 31.2592L68.3483 31.2592Z"
            fill="#33332D" />
    </g>
    <defs>
        <clipPath id="clip0_98_2179">
            <rect width="120" height="140" fill="white" />
        </clipPath>
    </defs>
</svg>
