<svg width="20" height="21" viewBox="0 0 20 21" fill="none" xmlns="http://www.w3.org/2000/svg">
    <path
        d="M7.11523 16.4287C6.37695 16.4287 5.91895 16.0049 5.91895 15.2256V15.0957C5.91895 13.4072 7.68945 11.6436 8.58496 10.7617C9.0498 10.29 9.02246 9.79102 8.58496 9.35352C7.68945 8.46484 5.91895 6.70801 5.91895 5.0127V4.90332C5.91895 4.12402 6.37695 3.69336 7.11523 3.69336H12.8848C13.6299 3.69336 14.0811 4.12402 14.0811 4.90332V5.0127C14.0811 6.70801 12.3174 8.46484 11.4219 9.35352C10.9844 9.79102 10.957 10.29 11.4219 10.7617C12.3174 11.6436 14.0811 13.4072 14.0811 15.0957V15.2256C14.0811 16.0049 13.6299 16.4287 12.8848 16.4287H7.11523ZM7.68945 15.3623H12.3105C12.625 15.3623 12.707 15 12.4951 14.8018L10.4102 12.792C10.3008 12.6895 10.2666 12.6553 10.2666 12.4912V9.58594C10.2666 9.25098 10.335 9.06641 10.5811 8.85449C11.0186 8.47168 11.6406 7.93164 12.0371 7.50098C12.2285 7.30273 12.1396 7.0498 11.8867 7.0498H8.12012C7.86719 7.0498 7.77148 7.30273 7.96289 7.50098C8.36621 7.93164 8.98145 8.47168 9.41895 8.85449C9.66504 9.06641 9.7334 9.25098 9.7334 9.58594V12.4912C9.7334 12.6553 9.70605 12.6895 9.58984 12.792L7.50488 14.8018C7.2998 15 7.38184 15.3623 7.68945 15.3623Z"
        fill="#A9B52D" />
</svg>
