<svg width="36" height="30" viewBox="0 0 36 30" fill="none" xmlns="http://www.w3.org/2000/svg">
    <path
        d="M12.4082 20.8672C10.9316 20.8672 10.166 20.1084 10.166 18.6455V10.3125C10.166 8.87695 10.918 8.13184 12.1963 8.13184H14.1309C14.8418 8.13184 15.1973 8.26172 15.6758 8.6582L16.0723 8.97266C16.4482 9.28027 16.7354 9.39648 17.2275 9.39648H23.585C25.0615 9.39648 25.8271 10.1553 25.8271 11.6182V18.6455C25.8271 20.1084 25.0684 20.8672 23.7627 20.8672H12.4082ZM11.5059 10.4287V12.1309H24.4873V11.7344C24.4873 11.0645 24.1387 10.7363 23.5098 10.7363H16.8721C16.1611 10.7363 15.792 10.6064 15.3203 10.2168L14.9238 9.89551C14.541 9.58105 14.2607 9.47168 13.7754 9.47168H12.4629C11.8477 9.47168 11.5059 9.7998 11.5059 10.4287ZM12.4902 19.5273H23.5098C24.1387 19.5273 24.4873 19.1992 24.4873 18.5361V13.3135H11.5059V18.5361C11.5059 19.1992 11.8545 19.5273 12.4902 19.5273Z"
        fill="#7F8075" />
</svg>
