<svg width="36" height="30" viewBox="0 0 36 30" fill="none" xmlns="http://www.w3.org/2000/svg">
    <path
        d="M14.3701 20.5459C13.8164 20.5459 13.4268 20.1221 13.4268 19.4453V9.69727C13.4268 9.02051 13.8164 8.59668 14.3701 8.59668C14.6641 8.59668 14.9102 8.69922 15.2246 8.88379L23.2773 13.5459C23.8721 13.8877 24.1045 14.1475 24.1045 14.5713C24.1045 14.9951 23.8721 15.2549 23.2773 15.5967L15.2246 20.2656C14.9102 20.4434 14.6641 20.5459 14.3701 20.5459ZM14.8623 18.8848C14.8896 18.8848 14.917 18.8711 14.9443 18.8574L22.2314 14.6465C22.2588 14.626 22.2861 14.6055 22.2861 14.5713C22.2861 14.5371 22.2588 14.5166 22.2314 14.4961L14.9443 10.2852C14.917 10.2715 14.8896 10.2578 14.8623 10.2578C14.8281 10.2578 14.8008 10.2852 14.8008 10.333V18.8096C14.8008 18.8574 14.8281 18.8848 14.8623 18.8848Z"
        fill="#7F8075" />
</svg>
