<svg width="12" height="12" viewBox="0 0 12 12" fill="none" xmlns="http://www.w3.org/2000/svg">
    <path
        d="M0.319336 10.1455V1.9834C0.319336 0.985352 0.927734 0.383789 1.95996 0.383789H10.04C11.0654 0.383789 11.6807 0.985352 11.6807 1.9834V10.1455C11.6807 11.1436 11.0654 11.7451 10.04 11.7451H1.95996C0.927734 11.7451 0.319336 11.1436 0.319336 10.1455ZM1.65918 9.75586C1.65918 10.1729 1.89844 10.4121 2.30176 10.4121H9.71191C10.1221 10.4121 10.3613 10.1729 10.3613 9.75586V2.37305C10.3613 1.96289 10.1221 1.7168 9.71191 1.7168H2.30176C1.89844 1.7168 1.65918 1.96289 1.65918 2.37305V9.75586Z"
        fill="#7F8075" />
</svg>
