<svg width="16" height="13" viewBox="0 0 16 13" fill="none" xmlns="http://www.w3.org/2000/svg">
    <path
        d="M10.5361 4.04883C9.79785 4.04883 9.16211 3.59082 8.90234 2.94141H1.59473C1.23926 2.94141 0.952148 2.64746 0.952148 2.29199C0.952148 1.93652 1.23242 1.64258 1.59473 1.64258H8.90234C9.16211 0.993164 9.79785 0.535156 10.5361 0.535156C11.2744 0.535156 11.9102 0.993164 12.1699 1.64258H14.4258C14.7676 1.64258 15.0479 1.93652 15.0479 2.29199C15.0479 2.64746 14.7607 2.94141 14.4258 2.94141H12.1631C11.9033 3.59082 11.2744 4.04883 10.5361 4.04883ZM10.5361 3.12598C11.0078 3.12598 11.3701 2.75684 11.3701 2.29199C11.3701 1.81348 11.0078 1.45117 10.5361 1.45117C10.0713 1.45117 9.69531 1.81348 9.69531 2.29199C9.69531 2.75684 10.0713 3.12598 10.5361 3.12598ZM1.56738 5.90137H3.91211C4.17188 5.25195 4.80762 4.79395 5.5459 4.79395C6.27734 4.79395 6.91309 5.25195 7.17285 5.90137H14.4053C14.7676 5.90137 15.0479 6.18848 15.0479 6.55078C15.0479 6.90625 14.7607 7.19336 14.4053 7.19336H7.17285C6.91309 7.84277 6.27734 8.30762 5.5459 8.30762C4.80078 8.30762 4.16504 7.84277 3.91211 7.19336H1.56738C1.23926 7.19336 0.952148 6.89941 0.952148 6.55078C0.952148 6.18848 1.23242 5.90137 1.56738 5.90137ZM5.5459 7.38477C6.01758 7.38477 6.37988 7.01562 6.37988 6.55078C6.37988 6.07227 6.01758 5.70996 5.5459 5.70996C5.07422 5.70996 4.70508 6.07227 4.70508 6.55078C4.70508 7.01562 5.07422 7.38477 5.5459 7.38477ZM10.5361 12.5596C9.79785 12.5596 9.16211 12.1016 8.90234 11.4521H1.59473C1.23926 11.4521 0.952148 11.1582 0.952148 10.8027C0.952148 10.4473 1.23242 10.1533 1.59473 10.1533H8.90234C9.16211 9.50391 9.79785 9.0459 10.5361 9.0459C11.2744 9.0459 11.9102 9.50391 12.1631 10.1533H14.4258C14.7676 10.1533 15.0479 10.4404 15.0479 10.8027C15.0479 11.1582 14.7607 11.4521 14.4258 11.4521H12.1699C11.9102 12.1016 11.2744 12.5596 10.5361 12.5596ZM10.5361 11.6436C11.0078 11.6436 11.3701 11.2676 11.3701 10.8027C11.3701 10.3311 11.0078 9.96191 10.5361 9.96191C10.0713 9.96191 9.69531 10.3311 9.69531 10.8027C9.69531 11.2676 10.0713 11.6436 10.5361 11.6436Z"
        fill="#3D4200" />
</svg>
