<svg width="164" height="132" viewBox="0 0 164 132" fill="none" xmlns="http://www.w3.org/2000/svg">
<circle cx="105.043" cy="41" r="27" fill="#F2F7B2"/>
<circle cx="105.043" cy="41" r="35.5" stroke="#F2F7B2" stroke-width="5"/>
<path d="M136.202 61.3115C135.238 60.6963 135.095 59.5068 135.771 58.4404C138.909 53.7031 140.857 47.7354 140.857 41.1934C140.857 34.6514 138.909 28.7246 135.771 23.9668C135.095 22.9004 135.238 21.7109 136.202 21.0957C137.084 20.501 138.273 20.7266 138.93 21.7314C142.478 27.1455 144.692 33.8311 144.692 41.1934C144.692 48.5762 142.539 55.2822 138.93 60.6758C138.273 61.6602 137.084 61.9062 136.202 61.3115ZM91.9258 49.9297C88.9111 49.9297 87.3936 48.3506 87.3936 45.1719V37.2969C87.3936 34.1182 88.9111 32.5391 91.9258 32.5391H97.7295C97.8936 32.5391 98.0576 32.498 98.1807 32.375L107.204 24.3564C108.353 23.3311 109.07 22.8594 110.137 22.8594C111.675 22.8594 112.803 24.0898 112.803 25.6074V56.9229C112.803 58.4404 111.675 59.5479 110.157 59.5479C109.091 59.5479 108.271 59.1172 107.204 58.1533L98.1807 50.0938C98.0576 49.9707 97.8936 49.9297 97.7295 49.9297H91.9258ZM127.958 55.7744C126.994 55.1592 126.871 53.9697 127.568 52.9033C129.722 49.6836 131.014 45.5205 131.014 41.1934C131.014 36.8457 129.763 32.6826 127.568 29.4834C126.851 28.417 126.994 27.2275 127.958 26.6123C128.881 26.0176 130.009 26.2432 130.645 27.1865C133.331 30.9189 134.869 36.0049 134.869 41.1934C134.869 46.3818 133.311 51.4268 130.645 55.2002C130.009 56.1436 128.881 56.3486 127.958 55.7744ZM92.2744 46.3203H98.6729C99.2266 46.3203 99.6572 46.4434 100.129 46.8535L108.332 54.2979C108.455 54.4004 108.558 54.4619 108.681 54.4619C108.824 54.4619 108.947 54.3389 108.947 54.1543V28.2734C108.947 28.0889 108.824 27.9658 108.66 27.9658C108.537 27.9658 108.435 28.0479 108.332 28.1299L100.129 35.6152C99.6367 36.0459 99.2266 36.1484 98.6729 36.1484H92.2744C91.5771 36.1484 91.249 36.4766 91.249 37.1738V45.2949C91.249 45.9922 91.5771 46.3203 92.2744 46.3203ZM119.775 50.2988C118.791 49.6221 118.606 48.4531 119.386 47.2842C120.514 45.6436 121.17 43.4697 121.17 41.1934C121.17 38.8965 120.534 36.7227 119.386 35.1025C118.606 33.9541 118.791 32.7646 119.775 32.1084C120.637 31.5137 121.785 31.7188 122.4 32.6006C124.041 34.8359 125.025 37.9531 125.025 41.1934C125.025 44.4336 124.041 47.5713 122.4 49.7656C121.785 50.668 120.637 50.8525 119.775 50.2988Z" fill="#33332D"/>
<path d="M29.8936 68.5859L9.41357 99.4959C9.41357 99.4959 21.5236 119.166 45.6836 120.066C78.6336 121.296 108.794 81.1659 89.6936 58.4059C97.1336 50.9559 90.5936 29.7459 72.8436 51.0559C70.4836 42.6859 56.3336 39.1559 55.6736 58.0259C55.3236 68.0659 43.1736 76.6359 43.1736 76.6359C43.1736 76.6359 35.4136 73.5559 29.9036 68.5859H29.8936Z" fill="#FFE664"/>
<path d="M30.3538 66.976C34.0838 70.086 38.5538 72.576 43.1338 74.176C44.1738 74.536 44.7238 75.676 44.3638 76.726C43.9938 77.816 42.7538 78.366 41.6938 77.906C36.7038 75.776 32.2138 72.876 28.2738 69.146C26.9038 67.766 28.8938 65.666 30.3438 66.976H30.3538Z" fill="#33332D"/>
<path d="M38.9236 78.1759C43.6736 73.3259 48.9136 68.6259 52.1636 62.5759C53.1636 60.8759 53.6336 59.4159 53.6836 57.5459C53.6336 51.9159 55.6336 45.4559 61.4036 43.0259C67.5036 40.5159 73.1036 45.4159 74.7336 50.9559C75.5436 53.4659 71.8636 54.7359 70.9536 52.2659C70.2836 50.2859 69.2136 48.4459 67.7336 47.3959C64.5136 44.9659 60.5336 47.2459 59.0236 50.6859C57.3736 53.6759 58.0236 57.4659 57.2536 60.7459C55.3136 66.7759 51.0536 71.8359 46.6036 76.1759C44.8036 77.8659 42.9336 79.4059 40.6736 80.6059C39.9336 80.9959 39.0236 80.7159 38.6236 79.9759C38.2936 79.3559 38.4436 78.6259 38.9136 78.1659L38.9236 78.1759Z" fill="#33332D"/>
<path d="M70.3237 53.4359C71.9737 48.3559 75.8737 43.8159 80.7237 41.3059C87.0837 37.9759 94.4037 41.2059 94.5837 48.8159C94.6937 52.6759 93.2737 56.1859 91.4337 59.3959L91.2837 57.2059C94.9237 62.0159 97.3237 67.9259 97.5937 73.9959C98.9037 98.9459 67.4437 124.586 43.4237 121.526C28.8637 119.786 15.1037 111.476 7.27368 98.9559C6.28368 97.2459 8.73367 95.7159 9.82367 97.3759C18.5937 111.036 35.5737 119.986 51.8737 118.136C57.2437 117.346 62.4637 115.346 67.2837 112.706C81.0037 104.996 94.3537 90.8459 93.7237 74.2259C93.4337 68.9359 91.3536 63.8759 88.1036 59.6359C87.6036 58.9859 87.5737 58.1159 87.9537 57.4459C89.4237 54.7159 90.5037 51.7259 90.3837 49.0059C90.3237 44.4559 86.2137 43.1959 82.5137 45.0659C78.2537 47.0459 75.8837 51.0859 73.0037 54.8159C72.0037 56.1759 69.8237 55.0259 70.3337 53.4559L70.3237 53.4359Z" fill="#33332D"/>
</svg>
